<svg width="27" height="27" viewBox="0 0 27 27" fill="none" xmlns="http://www.w3.org/2000/svg">
<path fill-rule="evenodd" clip-rule="evenodd" d="M9.81543 17.1807C10.5847 18.8949 11.8797 20.3266 13.4961 21.2714C14.8203 22.0505 16.3685 22.4888 18.0141 22.4888C19.3286 22.4888 20.575 22.2064 21.6947 21.6999C24.7425 20.3266 26.8944 17.2976 26.9917 13.7621C26.9917 13.6744 26.9917 13.5868 26.9917 13.4991C26.9917 13.4115 26.9917 13.3238 26.9917 13.2361C26.8944 9.70066 24.7425 6.67163 21.6947 5.29834C22.2011 6.4184 22.4835 7.66507 22.4835 8.97992C22.4835 10.6259 22.0355 12.1648 21.2663 13.4991C20.3218 15.1159 18.9002 16.4015 17.1864 17.1807C16.0667 17.6872 14.8203 17.9696 13.5058 17.9696C12.1913 17.9696 10.9449 17.6872 9.82517 17.1807H9.81543Z" fill="#D9C9B6"/>
<path fill-rule="evenodd" clip-rule="evenodd" d="M-2.84826e-05 13.4991C-2.84826e-05 13.5868 -2.84826e-05 13.6744 -2.84826e-05 13.7621C0.0973429 17.2976 2.24925 20.3266 5.29698 21.6999C4.79065 20.5798 4.50827 19.3332 4.50827 18.0183C4.50827 16.3723 4.94644 14.8334 5.72541 13.4991C6.66991 11.8823 8.09154 10.587 9.80527 9.81753C10.925 9.31107 12.1714 9.02862 13.4859 9.02862C14.8004 9.02862 16.0468 9.31107 17.1666 9.81753C16.3973 8.10335 15.1023 6.67163 13.4859 5.73662C12.1617 4.95745 10.6135 4.51917 8.96788 4.51917C7.65337 4.51917 6.40701 4.80161 5.28724 5.30808C2.23951 6.68137 0.0876058 9.71039 -0.00976562 13.2459C-0.00976562 13.3335 -0.00976562 13.4212 -0.00976562 13.5089L-2.84826e-05 13.4991Z" fill="#D9C9B6"/>
<path fill-rule="evenodd" clip-rule="evenodd" d="M5.29685 5.3081C6.41662 4.80164 7.66297 4.51919 8.97749 4.51919C10.6231 4.51919 12.1615 4.96722 13.4955 5.73665C15.1119 6.68139 16.3972 8.10338 17.1762 9.81756C17.6825 10.9376 17.9649 12.1843 17.9649 13.4991C17.9649 14.814 17.6825 16.0509 17.1762 17.1807C18.8899 16.4113 20.3213 15.1159 21.256 13.4991C22.035 12.1746 22.4732 10.6259 22.4732 8.97995C22.4732 7.6651 22.1908 6.42816 21.6845 5.29837C20.3115 2.24986 17.2833 0.0973964 13.7487 0C13.6611 0 13.5734 0 13.4858 0C13.3982 0 13.3105 0 13.2229 0C9.6883 0.0973964 6.66005 2.24986 5.28711 5.29837L5.29685 5.3081Z" fill="#D9643A"/>
<path fill-rule="evenodd" clip-rule="evenodd" d="M4.51758 18.0183C4.51758 19.3331 4.79996 20.5701 5.30629 21.6999C6.67922 24.7484 9.70748 26.9008 13.2421 26.9982C13.3297 26.9982 13.4173 26.9982 13.505 26.9982C13.5926 26.9982 13.6802 26.9982 13.7679 26.9982C17.3024 26.9008 20.3307 24.7484 21.7036 21.6999C20.5839 22.2063 19.3375 22.4888 18.023 22.4888C16.3774 22.4888 14.8389 22.0408 13.505 21.2713C11.8886 20.3266 10.5936 18.9046 9.82432 17.1807C9.31799 16.0606 9.03561 14.8139 9.03561 13.4991C9.03561 12.1842 9.31799 10.9376 9.82432 9.8175C8.11058 10.5869 6.67922 11.8823 5.74446 13.4991C4.96549 14.8237 4.52732 16.3723 4.52732 18.0183H4.51758Z" fill="#D9643A"/>
</svg>
